<?xml version="1.0" encoding="UTF-8" standalone="no"?>
<!-- Created with Inkscape (http://www.inkscape.org/) -->

<svg
   width="156.08401mm"
   height="156.08401mm"
   viewBox="0 0 156.08402 156.08402"
   version="1.1"
   id="svg1"
   xmlns="http://www.w3.org/2000/svg"
   xmlns:svg="http://www.w3.org/2000/svg">
  <defs
     id="defs1" />
  <g
     id="layer4"
     style="display:inline">
    <path
       style="fill:#fcfbfb;fill-opacity:1;stroke:none;stroke-width:0.1;stroke-linecap:round;stroke-dasharray:none;stroke-opacity:1;paint-order:markers fill stroke"
       d="m 134.63764,184.15089 c -1.70345,1.14536 4.48249,13.27342 7.72618,17.45817 3.24369,4.18472 8.13336,5.86583 11.50912,7.96379 3.37576,2.09798 2.23789,3.18353 4.41091,3.82534 2.17302,0.6418 6.16394,-2.06505 6.51455,-4.40702 0.35064,-2.34197 -1.67036,-7.13793 -2.82385,-5.92773 -1.15348,1.21019 -5.61654,1.04122 -7.27188,0.55211 -1.65533,-0.48911 -5.57071,-2.85897 -7.91272,-4.89121 -4.77731,-4.14543 -10.44885,-15.71877 -12.15233,-14.57348 z"
       id="path2"
       transform="translate(-26.958052,-70.457473)" />
    <path
       id="path8"
       style="display:inline;opacity:0.0132006;fill:none;stroke:none;stroke-width:0.1;stroke-linecap:round;stroke-dasharray:none;stroke-opacity:1;paint-order:markers fill stroke"
       d="M 104.9998,70.457473 A 78.042,78.042 0 0 0 26.958052,148.49922 78.042,78.042 0 0 0 104.9998,226.54149 78.042,78.042 0 0 0 183.04206,148.49922 78.042,78.042 0 0 0 104.9998,70.457473 Z m 11.29233,4.496883 c 2.15483,0.05597 4.32665,0.635476 6.32468,1.789038 6.39369,3.691399 8.58464,11.866695 4.89324,18.260384 -3.69139,6.393692 -11.86721,8.584642 -18.2609,4.893242 -6.39369,-3.691399 -8.58412,-11.867212 -4.89272,-18.260901 2.53783,-4.395662 7.19508,-6.804886 11.9357,-6.681763 z m -31.913293,2.594157 c 7.382797,0 13.367659,5.984862 13.367659,13.36766 0,7.382796 -5.984862,13.367657 -13.367659,13.367657 -7.382797,0 -13.368177,-5.984861 -13.368177,-13.367657 0,-7.382798 5.98538,-13.36766 13.368177,-13.36766 z m 59.820123,10.93525 c 4.74062,-0.123124 9.39787,2.285584 11.9357,6.681246 3.6914,6.393691 1.50097,14.569501 -4.89272,18.260901 -6.39368,3.6914 -14.56951,1.50096 -18.2609,-4.89272 -3.69141,-6.39369 -1.50044,-14.569507 4.89324,-18.260906 1.99803,-1.153562 4.16985,-1.732556 6.32468,-1.788521 z m -86.208177,7.092073 c 4.740622,-0.123123 9.397869,2.286102 11.935706,6.681764 3.691398,6.39369 1.500965,14.5695 -4.892725,18.2609 -6.39369,3.6914 -14.569502,1.50045 -18.260901,-4.89324 -3.691399,-6.39369 -1.500966,-14.56899 4.892725,-18.260385 1.998028,-1.153562 4.170367,-1.733073 6.325195,-1.789039 z M 162.58337,114.51008 c 7.38279,0 13.36765,5.98538 13.36765,13.36818 0,7.3828 -5.98486,13.36766 -13.36765,13.36766 -7.38281,0 -13.36766,-5.98486 -13.36766,-13.36766 0,-7.3828 5.98485,-13.36818 13.36766,-13.36818 z m -117.403691,9.69088 c 2.154828,0.056 4.32665,0.63496 6.324678,1.78852 6.39369,3.6914 8.584641,11.86722 4.893242,18.2609 -3.691399,6.39369 -11.867212,8.58413 -18.260901,4.89273 -6.39369,-3.6914 -8.584123,-11.8667 -4.892725,-18.26038 2.537837,-4.39567 7.195084,-6.80489 11.935706,-6.68177 z m 2.237073,31.55208 c 7.382796,0 13.367659,5.98486 13.367659,13.36766 0,7.3828 -5.984863,13.36818 -13.367659,13.36818 -7.382798,0 -13.36766,-5.98538 -13.36766,-13.36818 0,-7.3828 5.984862,-13.36766 13.36766,-13.36766 z m 17.666621,26.03149 c 4.740622,-0.12312 9.397869,2.28558 11.935706,6.68124 3.691398,6.39369 1.500448,14.56951 -4.893241,18.2609 -6.393691,3.6914 -14.568985,1.50096 -18.260384,-4.89272 -3.691399,-6.39369 -1.500965,-14.5695 4.892724,-18.2609 1.998028,-1.15356 4.170367,-1.73256 6.325195,-1.78852 z m 60.537907,10.9306 c 7.3828,0 13.36818,5.98486 13.36818,13.36766 0,7.3828 -5.98538,13.36766 -13.36818,13.36766 -7.3828,0 -13.36766,-5.98486 -13.36766,-13.36766 0,-7.3828 5.98486,-13.36766 13.36766,-13.36766 z m -31.195512,2.59829 c 2.154829,0.056 4.327168,0.63496 6.325192,1.78852 6.39369,3.6914 8.58413,11.86721 4.89273,18.2609 -3.6914,6.39368 -11.866696,8.58413 -18.260386,4.89272 -6.39369,-3.69139 -8.584639,-11.8667 -4.893241,-18.26038 2.537837,-4.39566 7.195084,-6.80488 11.935705,-6.68176 z"
       transform="translate(-26.958052,-70.457473)" />
  </g>
</svg>
