<?xml version="1.0" encoding="UTF-8" standalone="no"?>
<!-- Created with Inkscape (http://www.inkscape.org/) -->

<svg
   width="156.18401mm"
   height="156.18402mm"
   viewBox="0 0 156.18401 156.18402"
   version="1.1"
   id="svg1"
   xml:space="preserve"
   sodipodi:docname="rotary_numbers.svg"
   inkscape:export-filename="rotary_numbers.svg"
   inkscape:export-xdpi="96"
   inkscape:export-ydpi="96"
   inkscape:version="1.3.2 (091e20ef0f, 2023-11-25, custom)"
   xmlns:inkscape="http://www.inkscape.org/namespaces/inkscape"
   xmlns:sodipodi="http://sodipodi.sourceforge.net/DTD/sodipodi-0.dtd"
   xmlns="http://www.w3.org/2000/svg"
   xmlns:svg="http://www.w3.org/2000/svg"><sodipodi:namedview
     id="namedview1"
     pagecolor="#505050"
     bordercolor="#eeeeee"
     borderopacity="1"
     inkscape:showpageshadow="0"
     inkscape:pageopacity="0"
     inkscape:pagecheckerboard="0"
     inkscape:deskcolor="#505050"
     inkscape:document-units="mm"
     inkscape:zoom="5.1905656"
     inkscape:cx="399.18578"
     inkscape:cy="481.45042"
     inkscape:window-width="1920"
     inkscape:window-height="1018"
     inkscape:window-x="0"
     inkscape:window-y="0"
     inkscape:window-maximized="1"
     inkscape:current-layer="layer7" /><defs
     id="defs1"><rect
       x="515.42358"
       y="189.61832"
       width="51.010445"
       height="19.946329"
       id="rect23" /><rect
       x="20.351515"
       y="319.88467"
       width="30.321236"
       height="122.75712"
       id="rect4" /><rect
       x="215.14328"
       y="481.86902"
       width="76.745689"
       height="78.363937"
       id="rect10" /><rect
       x="215.14328"
       y="481.86902"
       width="76.745689"
       height="78.363937"
       id="rect11" /><rect
       x="215.14328"
       y="481.86902"
       width="76.745689"
       height="78.363937"
       id="rect12" /><rect
       x="215.14328"
       y="481.86902"
       width="76.745689"
       height="78.363937"
       id="rect13" /><rect
       x="215.14328"
       y="481.86902"
       width="76.745689"
       height="78.363937"
       id="rect14" /><rect
       x="215.14328"
       y="481.86902"
       width="76.745689"
       height="78.363937"
       id="rect15" /><rect
       x="215.14328"
       y="481.86902"
       width="76.745689"
       height="78.363937"
       id="rect16" /><rect
       x="215.14328"
       y="481.86902"
       width="76.745689"
       height="78.363937"
       id="rect17" /><rect
       x="215.14328"
       y="481.86902"
       width="76.745689"
       height="78.363937"
       id="rect18" /></defs><g
     id="layer7"
     transform="translate(-0.01814,0.02104)"><text
       xml:space="preserve"
       transform="matrix(0.26458333,0,0,0.26458333,16.030827,0.11348143)"
       id="text4"
       style="font-size:26.6667px;font-family:'Liberation Sans';-inkscape-font-specification:'Liberation Sans';letter-spacing:-6.47px;writing-mode:tb-rl;text-orientation:upright;white-space:pre;shape-inside:url(#rect4);display:inline;fill:#000000;stroke:none;stroke-width:1.51181;stroke-linecap:round;stroke-dasharray:none;paint-order:markers fill stroke"><tspan
         x="34.005187"
         y="319.88477"
         id="tspan16">PRSQ</tspan></text><text
       xml:space="preserve"
       style="font-size:21.1667px;font-family:sans-serif;-inkscape-font-specification:'sans-serif, Normal';fill:#000000;stroke:#000000;stroke-width:0.7;stroke-linecap:round;stroke-dasharray:none;stroke-dashoffset:0;paint-order:markers fill stroke"
       x="89.344429"
       y="145.78772"
       id="text95"
       transform="scale(1.0121805,0.98796607)"><tspan
         id="tspan95"
         style="font-size:21.1667px;fill:#000000;stroke:#000000;stroke-width:0.7;stroke-dasharray:none;stroke-dashoffset:0"
         x="89.344429"
         y="145.78772">0</tspan></text><text
       xml:space="preserve"
       transform="matrix(0.43233287,0,0,0.4190104,-36.358381,-74.997474)"
       id="text10"
       style="font-size:49.7314px;font-family:sans-serif;-inkscape-font-specification:'sans-serif, Normal';white-space:pre;shape-inside:url(#rect10);display:inline;fill:#000000;stroke:#000000;stroke-width:1.64466;stroke-linecap:round;stroke-dasharray:none;stroke-dashoffset:0;paint-order:markers fill stroke"><tspan
         x="215.14258"
         y="527.11851"
         id="tspan17">9</tspan></text><text
       xml:space="preserve"
       transform="matrix(0.43233287,0,0,0.4190104,-63.001062,-87.768828)"
       id="text11"
       style="font-size:49.7314px;font-family:sans-serif;-inkscape-font-specification:'sans-serif, Normal';white-space:pre;shape-inside:url(#rect11);display:inline;fill:#000000;stroke:#000000;stroke-width:1.64466;stroke-linecap:round;stroke-dasharray:none;stroke-dashoffset:0;paint-order:markers fill stroke"><tspan
         x="215.14258"
         y="527.11851"
         id="tspan18">8
</tspan></text><text
       xml:space="preserve"
       transform="matrix(0.43233287,0,0,0.4190104,-82.442186,-114.25124)"
       id="text12"
       style="font-size:49.7314px;font-family:sans-serif;-inkscape-font-specification:'sans-serif, Normal';white-space:pre;shape-inside:url(#rect12);display:inline;fill:#000000;stroke:#000000;stroke-width:1.64466;stroke-linecap:round;stroke-dasharray:none;stroke-dashoffset:0;paint-order:markers fill stroke"><tspan
         x="215.14258"
         y="527.11851"
         id="tspan20">7</tspan></text><text
       xml:space="preserve"
       transform="matrix(0.43233287,0,0,0.4190104,-84.486314,-146.05834)"
       id="text13"
       style="font-size:49.7314px;font-family:sans-serif;-inkscape-font-specification:'sans-serif, Normal';white-space:pre;shape-inside:url(#rect13);display:inline;fill:#000000;stroke:#000000;stroke-width:1.64466;stroke-linecap:round;stroke-dasharray:none;stroke-dashoffset:0;paint-order:markers fill stroke"><tspan
         x="215.14258"
         y="527.11851"
         id="tspan21">6</tspan></text><text
       xml:space="preserve"
       transform="matrix(0.43233287,0,0,0.4190104,-70.361131,-174.07132)"
       id="text14"
       style="font-size:49.7314px;font-family:sans-serif;-inkscape-font-specification:'sans-serif, Normal';white-space:pre;shape-inside:url(#rect14);display:inline;fill:#000000;stroke:#000000;stroke-width:1.64466;stroke-linecap:round;stroke-dasharray:none;stroke-dashoffset:0;paint-order:markers fill stroke"><tspan
         x="215.14258"
         y="527.11851"
         id="tspan22">5</tspan></text><text
       xml:space="preserve"
       transform="matrix(0.43233287,0,0,0.4190104,-44.955167,-193.16639)"
       id="text15"
       style="font-size:49.7314px;font-family:sans-serif;-inkscape-font-specification:'sans-serif, Normal';white-space:pre;shape-inside:url(#rect15);display:inline;fill:#000000;stroke:#000000;stroke-width:1.64466;stroke-linecap:round;stroke-dasharray:none;stroke-dashoffset:0;paint-order:markers fill stroke"><tspan
         x="215.14258"
         y="527.11851"
         id="tspan23">4</tspan></text><text
       xml:space="preserve"
       transform="matrix(0.43233287,0,0,0.4190104,-12.308582,-195.14439)"
       id="text16"
       style="font-size:49.7314px;font-family:sans-serif;-inkscape-font-specification:'sans-serif, Normal';white-space:pre;shape-inside:url(#rect16);display:inline;fill:#000000;stroke:#000000;stroke-width:1.64466;stroke-linecap:round;stroke-dasharray:none;stroke-dashoffset:0;paint-order:markers fill stroke"><tspan
         x="215.14258"
         y="527.11851"
         id="tspan27">3</tspan></text><text
       xml:space="preserve"
       transform="matrix(0.43233287,0,0,0.4190104,15.566482,-182.11409)"
       id="text17"
       style="font-size:49.7314px;font-family:sans-serif;-inkscape-font-specification:'sans-serif, Normal';white-space:pre;shape-inside:url(#rect17);display:inline;fill:#000000;stroke:#000000;stroke-width:1.64466;stroke-linecap:round;stroke-dasharray:none;stroke-dashoffset:0;paint-order:markers fill stroke"><tspan
         x="215.14258"
         y="527.11851"
         id="tspan28">2</tspan></text><text
       xml:space="preserve"
       transform="matrix(0.43233287,0,0,0.4190104,31.815095,-155.52667)"
       id="text18"
       style="font-size:49.7314px;font-family:sans-serif;-inkscape-font-specification:'sans-serif, Normal';white-space:pre;shape-inside:url(#rect18);display:inline;fill:#000000;stroke:#000000;stroke-width:1.64466;stroke-linecap:round;stroke-dasharray:none;stroke-dashoffset:0;paint-order:markers fill stroke"><tspan
         x="215.14258"
         y="527.11851"
         id="tspan29">1</tspan></text><text
       xml:space="preserve"
       style="font-size:14.8167px;font-family:sans-serif;-inkscape-font-specification:'sans-serif, Normal';fill:#000000;stroke:#000000;stroke-width:1.5;stroke-linecap:round;paint-order:markers fill stroke"
       x="-7.7030959"
       y="92.482841"
       id="text19"><tspan
         id="tspan19"
         style="stroke-width:1.5"
         x="-7.7030959"
         y="92.482841" /></text><path
       id="path10"
       style="display:inline;opacity:0.0132006;fill:none;stroke:#999999;stroke-width:0.1;stroke-linecap:round;stroke-dasharray:none;paint-order:markers fill stroke"
       d="M 78.109888,0.02896 C 35.008679,0.029099 0.06828,34.969497 0.06814,78.070707 0.067991,121.17212 35.008475,156.11284 78.109888,156.11298 121.2115,156.11312 156.1523,121.17232 156.15215,78.070707 156.15201,34.969297 121.2113,0.028816 78.109888,0.02896 Z m 11.29233,4.496883 c 2.15483,0.05597 4.32665,0.635476 6.32468,1.789038 6.393692,3.691399 8.584642,11.866695 4.893242,18.260384 -3.691392,6.393692 -11.867212,8.584642 -18.260902,4.893242 -6.39369,-3.691399 -8.58412,-11.867212 -4.89272,-18.260901 2.53783,-4.395662 7.19508,-6.804886 11.9357,-6.681763 z M 57.488925,7.12 c 7.382797,0 13.367659,5.984862 13.367659,13.36766 0,7.382796 -5.984862,13.367657 -13.367659,13.367657 -7.382797,0 -13.368177,-5.984861 -13.368177,-13.367657 0,-7.382798 5.98538,-13.36766 13.368177,-13.36766 z m 59.820125,10.93525 c 4.74062,-0.123124 9.39787,2.285584 11.9357,6.681246 3.6914,6.393691 1.50097,14.569501 -4.89272,18.260901 -6.39368,3.6914 -14.56951,1.50096 -18.2609,-4.89272 -3.69141,-6.39369 -1.50044,-14.569507 4.89324,-18.260906 1.99803,-1.153562 4.16985,-1.732556 6.32468,-1.788521 z m -86.208179,7.092073 c 4.740622,-0.123123 9.397869,2.286102 11.935706,6.681764 3.691398,6.39369 1.500965,14.5695 -4.892725,18.2609 -6.39369,3.6914 -14.569502,1.50045 -18.260901,-4.89324 -3.691399,-6.39369 -1.500966,-14.56899 4.892725,-18.260385 1.998028,-1.153562 4.170367,-1.733073 6.325195,-1.789039 z M 135.69346,44.081567 c 7.38279,0 13.36765,5.98538 13.36765,13.36818 0,7.3828 -5.98486,13.36766 -13.36765,13.36766 -7.38281,0 -13.36766,-5.98486 -13.36766,-13.36766 0,-7.3828 5.98485,-13.36818 13.36766,-13.36818 z m -117.403693,9.69088 c 2.154828,0.056 4.32665,0.63496 6.324678,1.78852 6.39369,3.6914 8.584641,11.86722 4.893242,18.2609 -3.691399,6.39369 -11.867212,8.58413 -18.260901,4.89273 -6.39369,-3.6914 -8.584123,-11.8667 -4.892725,-18.26038 2.537837,-4.39567 7.195084,-6.80489 11.935706,-6.68177 z m 2.237073,31.55208 c 7.382796,0 13.367659,5.98486 13.367659,13.36766 0,7.382803 -5.984863,13.368183 -13.367659,13.368183 -7.382798,0 -13.36766,-5.98538 -13.36766,-13.368183 0,-7.3828 5.984862,-13.36766 13.36766,-13.36766 z m 17.666621,26.031493 c 4.740622,-0.12312 9.397869,2.28558 11.935706,6.68124 3.691398,6.39369 1.500448,14.56951 -4.893241,18.2609 -6.393691,3.6914 -14.568985,1.50096 -18.260384,-4.89272 -3.691399,-6.39369 -1.500965,-14.5695 4.892724,-18.2609 1.998028,-1.15356 4.170367,-1.73256 6.325195,-1.78852 z m 60.537907,10.9306 c 7.382802,0 13.368182,5.98486 13.368182,13.36766 0,7.3828 -5.98538,13.36766 -13.368182,13.36766 -7.3828,0 -13.36766,-5.98486 -13.36766,-13.36766 0,-7.3828 5.98486,-13.36766 13.36766,-13.36766 z m -31.195512,2.59829 c 2.154829,0.056 4.327168,0.63496 6.325192,1.78852 6.39369,3.6914 8.58413,11.86721 4.89273,18.2609 -3.6914,6.39368 -11.866696,8.58413 -18.260386,4.89272 -6.39369,-3.69139 -8.584639,-11.8667 -4.893241,-18.26038 2.537837,-4.39566 7.195084,-6.80488 11.935705,-6.68176 z" /><text
       xml:space="preserve"
       style="font-size:7.05556px;font-family:'Liberation Sans';-inkscape-font-specification:'Liberation Sans';letter-spacing:-1.71185px;writing-mode:tb-rl;text-orientation:upright;white-space:pre;fill:#000000;stroke-width:2;stroke-linecap:round;paint-order:markers fill stroke"
       id="text1"
       x="122.88853"
       y="20.480597">ABC</text><text
       xml:space="preserve"
       style="font-size:7.05556px;font-family:'Liberation Sans';-inkscape-font-specification:'Liberation Sans';letter-spacing:-1.71185px;writing-mode:tb-rl;text-orientation:upright;white-space:pre;display:inline;fill:#000000;stroke-width:2;stroke-linecap:round;paint-order:markers fill stroke"
       id="text1-8"
       x="36.556717"
       y="28.74811"><tspan
         id="tspan24"
         x="36.556717"
         y="28.74811">JKL</tspan><tspan
         id="tspan25"
         x="27.737263"
         y="28.74811" /><tspan
         x="18.917812"
         y="28.74811"
         id="tspan26" /></text><text
       xml:space="preserve"
       style="font-size:7.05556px;font-family:'Liberation Sans';-inkscape-font-specification:'Liberation Sans';letter-spacing:-1.71185px;writing-mode:tb-rl;text-orientation:upright;white-space:pre;display:inline;fill:#000000;stroke-width:2;stroke-linecap:round;paint-order:markers fill stroke"
       id="text1-3"
       x="94.404121"
       y="7.5536251">DEF</text><text
       xml:space="preserve"
       style="font-size:7.05556px;font-family:'Liberation Sans';-inkscape-font-specification:'Liberation Sans';letter-spacing:-1.71185px;writing-mode:tb-rl;text-orientation:upright;white-space:pre;display:inline;fill:#000000;stroke-width:2;stroke-linecap:round;paint-order:markers fill stroke"
       id="text1-6-2"
       x="23.285713"
       y="56.640537">MNO</text><text
       xml:space="preserve"
       style="font-size:7.05556px;font-family:'Liberation Sans';-inkscape-font-specification:'Liberation Sans';letter-spacing:-1.71185px;writing-mode:tb-rl;text-orientation:upright;white-space:pre;display:inline;fill:#000000;stroke-width:2;stroke-linecap:round;paint-order:markers fill stroke"
       id="text1-6"
       x="62.942749"
       y="9.5614347">GHI</text><text
       xml:space="preserve"
       style="font-size:7.05556px;font-family:'Liberation Sans';-inkscape-font-specification:'Liberation Sans';letter-spacing:-1.71185px;writing-mode:vertical-lr;text-orientation:upright;white-space:pre;display:inline;fill:#000000;stroke-width:2;stroke-linecap:round;paint-order:markers fill stroke"
       id="text1-6-1"
       x="44.225491"
       y="114.92919"><tspan
         x="44.225491"
         y="114.92919"
         id="tspan15">TUV</tspan></text><text
       xml:space="preserve"
       style="font-size:7.05556px;font-family:'Liberation Sans';-inkscape-font-specification:'Liberation Sans';letter-spacing:-1.71185px;writing-mode:tb-rl;text-orientation:upright;white-space:pre;display:inline;fill:#000000;stroke-width:2;stroke-linecap:round;paint-order:markers fill stroke"
       id="text1-6-5"
       transform="rotate(-0.90598061)"
       x="68.670845"
       y="125.71471">WXYZ</text><text
       xml:space="preserve"
       style="font-size:21.1666px;font-family:'Liberation Sans';-inkscape-font-specification:'Liberation Sans';display:inline;fill:#000000;stroke:none;stroke-width:0.399999;stroke-linecap:round;stroke-dasharray:none;paint-order:markers fill stroke"
       x="91.027733"
       y="125.83781"
       id="text2"><tspan
         id="tspan2"
         style="fill:#000000;stroke-width:0.4"
         x="91.027733"
         y="125.83781" /></text><text
       xml:space="preserve"
       style="font-size:7.05556px;font-family:'Liberation Sans';-inkscape-font-specification:'Liberation Sans';letter-spacing:-5.23081px;writing-mode:tb-rl;direction:ltr;text-orientation:upright;display:inline;fill:#000000;stroke:none;stroke-width:0.360302;stroke-linecap:round;stroke-dasharray:none;paint-order:markers fill stroke"
       id="text3"
       x="104.86477"
       y="125.91698"><tspan
         id="tspan3"
         style="font-size:7.05556px;letter-spacing:-5.23081px;writing-mode:tb-rl;direction:ltr;text-orientation:upright;fill:#000000;stroke-width:0.360303">@. -_</tspan></text><text
       xml:space="preserve"
       transform="matrix(0.4000758,0,0,0.4000758,-75.420841,-17.10084)"
       id="text23"
       style="font-size:42.6667px;font-family:'Liberation Sans';-inkscape-font-specification:'Liberation Sans';letter-spacing:-13.78px;writing-mode:tb-rl;direction:ltr;white-space:pre;shape-inside:url(#rect23);display:inline;fill:#000000;fill-opacity:0.47143;stroke:none;stroke-width:0;stroke-linecap:round;stroke-dasharray:none;paint-order:markers fill stroke"><tspan
         x="539.76691"
         y="189.61914"
         id="tspan31"><tspan
           style="font-size:29.3333px;fill-opacity:1"
           id="tspan30">]</tspan></tspan></text></g></svg>
