<?xml version="1.0" encoding="UTF-8" standalone="no"?>
<!-- Created with Inkscape (http://www.inkscape.org/) -->

<svg
   width="156.18401mm"
   height="156.18402mm"
   viewBox="0 0 156.18401 156.18402"
   version="1.1"
   id="svg1"
   xmlns="http://www.w3.org/2000/svg"
   xmlns:svg="http://www.w3.org/2000/svg">
  <defs
     id="defs1" />
  <g
     id="layer3"
     style="display:inline"
     transform="translate(0.05,0.05)">
    <path
       id="path1"
       style="display:inline;fill:none;stroke:#808080;stroke-width:2;stroke-linecap:round;stroke-dasharray:none;paint-order:markers fill stroke"
       d="M 78.011416,3.3382143 C 39.52637,3.4087087 2.8819998,34.528521 2.9469651,77.629681 3.0119206,120.73105 35.590957,153.66314 78.681977,152.71668 121.71637,151.77147 151.99064,121.14357 151.92539,78.042009 151.86014,34.940653 121.11274,3.2592642 78.011416,3.3382143 Z m 11.211558,1.141696 c 2.154912,0.052715 4.327606,0.6289409 6.327375,1.7794824 6.399261,3.681734 8.602551,11.8537213 4.920821,18.2529713 -3.681722,6.399252 -11.854234,8.602558 -18.253491,4.92082 C 75.81843,25.751449 73.615643,17.578945 77.297381,11.179695 79.828568,6.7802083 84.482183,4.3639481 89.222974,4.4799103 Z M 57.313637,7.1222699 C 64.696416,7.1111179 70.69032,13.08694 70.701473,20.469723 70.712625,27.852502 64.736801,33.846404 57.35402,33.857556 49.971239,33.868708 43.976819,27.892886 43.965666,20.510108 43.954515,13.127325 49.930854,7.1334217 57.313637,7.1222699 Z M 117.1502,17.967147 c 4.74043,-0.130284 9.40134,2.271392 11.94579,6.66321 3.70105,6.388098 1.52296,14.567218 -4.86513,18.268271 -6.38809,3.701053 -14.56724,1.522956 -18.26827,-4.86513 -3.70107,-6.388107 -1.52244,-14.567228 4.86564,-18.268279 1.99629,-1.156577 4.16723,-1.738851 6.32197,-1.798072 z m -86.197357,7.222285 c 4.740426,-0.130282 9.401313,2.271909 11.945784,6.663728 3.701048,6.388096 1.522966,14.567215 -4.865134,18.268269 -6.388101,3.701053 -14.567223,1.522446 -18.268272,-4.865651 -3.701048,-6.388097 -1.522966,-14.566706 4.865136,-18.267754 1.996281,-1.156579 4.167746,-1.739371 6.322486,-1.798592 z m 47.020189,7.360567 c 25.124548,-0.03812 45.522908,20.298479 45.560978,45.423031 0.0381,25.12475 -20.29879,45.5232 -45.423545,45.56098 -25.124551,0.0378 -45.52268,-20.299 -45.560462,-45.423547 -0.03784,-25.12435 20.298679,-45.522397 45.423029,-45.560464 z m 57.600888,11.415667 c 7.38276,-0.01115 13.37666,5.965179 13.38781,13.347971 0.0112,7.382782 -5.96466,13.376685 -13.34743,13.387838 -7.3828,0.01115 -13.37669,-5.964671 -13.38784,-13.347452 -0.0112,-7.382792 5.96465,-13.377206 13.34746,-13.388357 z M 18.184992,53.833875 c 2.154909,0.05275 4.327608,0.628429 6.327373,1.778964 6.399252,3.681738 8.602553,11.854249 4.920819,18.253488 C 25.75145,80.265586 17.578945,82.468373 11.179695,78.786635 4.7804422,75.104897 2.5776606,66.932905 6.2593928,60.533666 8.7905851,56.134168 13.444195,53.717916 18.184992,53.833875 Z m 2.284731,31.548665 c 7.382779,-0.01115 13.376684,5.964671 13.387836,13.34745 0.01115,7.38279 -5.964672,13.37721 -13.34745,13.38835 C 13.127325,112.1295 7.1334223,106.15315 7.1222701,98.770374 7.111119,91.387591 13.08694,85.393692 20.469723,85.38254 Z m 17.705921,26.00478 c 4.740427,-0.13029 9.401315,2.27139 11.945785,6.6632 3.701048,6.38811 1.522447,14.56723 -4.865653,18.26827 -6.3881,3.70105 -14.566704,1.52295 -18.267753,-4.86513 -3.701049,-6.3881 -1.522963,-14.56722 4.865136,-18.26828 1.99628,-1.15657 4.167748,-1.73885 6.322485,-1.79806 z m 60.554345,10.83914 c 7.382791,-0.0112 13.377211,5.96466 13.388361,13.34746 0.0111,7.38277 -5.9652,13.37667 -13.347976,13.38782 -7.382774,0.0112 -13.376681,-5.96466 -13.387835,-13.34744 -0.01115,-7.3828 5.964672,-13.37669 13.34745,-13.38784 z m -31.191547,2.6454 c 2.154908,0.0528 4.32813,0.62842 6.327887,1.77896 6.399259,3.68175 8.602035,11.85425 4.920307,18.2535 -3.681738,6.39924 -11.853723,8.60204 -18.252975,4.9203 -6.399251,-3.68172 -8.602549,-11.85374 -4.920817,-18.25297 2.531191,-4.39949 7.184801,-6.81574 11.925598,-6.69979 z" />
    <path
       id="circle90"
       style="display:inline;fill:#999999;stroke-width:1.5;stroke-linecap:round;paint-order:markers fill stroke"
       d="M 77.923865,8.9751302e-5 A 78.042,78.042 0 0 0 8.8979601e-5,78.159631 78.042,78.042 0 0 0 78.159631,156.08393 78.042,78.042 0 0 0 156.08391,77.923862 78.042,78.042 0 0 0 77.923865,8.9751302e-5 Z M 89.222974,4.4799103 c 2.154912,0.052715 4.327606,0.6289409 6.327375,1.7794824 6.399261,3.681734 8.602551,11.8537213 4.920821,18.2529713 -3.681722,6.399252 -11.854234,8.602558 -18.253491,4.92082 C 75.81843,25.751449 73.615643,17.578945 77.297381,11.179695 79.828568,6.7802083 84.482183,4.3639481 89.222974,4.4799103 Z M 57.313637,7.1222699 C 64.696416,7.1111179 70.69032,13.08694 70.701473,20.469723 70.712625,27.852502 64.736801,33.846404 57.35402,33.857556 49.971239,33.868708 43.976819,27.892886 43.965666,20.510108 43.954515,13.127325 49.930854,7.1334217 57.313637,7.1222699 Z M 117.1502,17.967147 c 4.74043,-0.130284 9.40134,2.271392 11.94579,6.66321 3.70105,6.388098 1.52296,14.567218 -4.86513,18.268271 -6.38809,3.701053 -14.56724,1.522956 -18.26827,-4.86513 -3.70107,-6.388107 -1.52244,-14.567228 4.86564,-18.268279 1.99629,-1.156577 4.16723,-1.738851 6.32197,-1.798072 z m -86.197357,7.222285 c 4.740426,-0.130282 9.401313,2.271909 11.945784,6.663728 3.701048,6.388096 1.522966,14.567215 -4.865134,18.268269 -6.388101,3.701053 -14.567223,1.522446 -18.268272,-4.865651 -3.701048,-6.388097 -1.522966,-14.566706 4.865136,-18.267754 1.996281,-1.156579 4.167746,-1.739371 6.322486,-1.798592 z m 47.020189,7.360567 A 45.492008,45.492008 0 0 1 123.53401,77.97303 45.492008,45.492008 0 0 1 78.110465,123.53401 45.492008,45.492008 0 0 1 32.550003,78.110463 45.492008,45.492008 0 0 1 77.973032,32.549999 Z m 57.600888,11.415667 c 7.38276,-0.01115 13.37666,5.965179 13.38781,13.347971 0.0112,7.382782 -5.96466,13.376685 -13.34743,13.387838 -7.3828,0.01115 -13.37669,-5.964671 -13.38784,-13.347452 -0.0112,-7.382792 5.96465,-13.377206 13.34746,-13.388357 z M 18.184992,53.833875 c 2.154909,0.05275 4.327608,0.628429 6.327373,1.778964 6.399252,3.681738 8.602553,11.854249 4.920819,18.253488 C 25.75145,80.265586 17.578945,82.468373 11.179695,78.786635 4.7804422,75.104897 2.5776606,66.932905 6.2593928,60.533666 8.7905851,56.134168 13.444195,53.717916 18.184992,53.833875 Z m 2.284731,31.548665 c 7.382779,-0.01115 13.376684,5.964671 13.387836,13.34745 0.01115,7.38279 -5.964672,13.37721 -13.34745,13.38835 C 13.127325,112.1295 7.1334223,106.15315 7.1222701,98.770374 7.111119,91.387591 13.08694,85.393692 20.469723,85.38254 Z m 17.705921,26.00478 c 4.740427,-0.13029 9.401315,2.27139 11.945785,6.6632 3.701048,6.38811 1.522447,14.56723 -4.865653,18.26827 -6.3881,3.70105 -14.566704,1.52295 -18.267753,-4.86513 -3.701049,-6.3881 -1.522963,-14.56722 4.865136,-18.26828 1.99628,-1.15657 4.167748,-1.73885 6.322485,-1.79806 z m 60.554345,10.83914 c 7.382791,-0.0112 13.377211,5.96466 13.388361,13.34746 0.0111,7.38277 -5.9652,13.37667 -13.347976,13.38782 -7.382774,0.0112 -13.376681,-5.96466 -13.387835,-13.34744 -0.01115,-7.3828 5.964672,-13.37669 13.34745,-13.38784 z m -31.191547,2.6454 c 2.154908,0.0528 4.32813,0.62842 6.327887,1.77896 6.399259,3.68175 8.602035,11.85425 4.920307,18.2535 -3.681738,6.39924 -11.853723,8.60204 -18.252975,4.9203 -6.399251,-3.68172 -8.602549,-11.85374 -4.920817,-18.25297 2.531191,-4.39949 7.184801,-6.81574 11.925598,-6.69979 z" />
    <path
       id="path4"
       style="display:inline;opacity:0.0132006;fill:none;stroke:#999999;stroke-width:0.1;stroke-linecap:round;stroke-dasharray:none;paint-order:markers fill stroke"
       d="M 104.9998,70.457473 A 78.042,78.042 0 0 0 26.958052,148.49922 78.042,78.042 0 0 0 104.9998,226.54149 78.042,78.042 0 0 0 183.04206,148.49922 78.042,78.042 0 0 0 104.9998,70.457473 Z m 11.29233,4.496883 c 2.15483,0.05597 4.32665,0.635476 6.32468,1.789038 6.39369,3.691399 8.58464,11.866695 4.89324,18.260384 -3.69139,6.393692 -11.86721,8.584642 -18.2609,4.893242 -6.39369,-3.691399 -8.58412,-11.867212 -4.89272,-18.260901 2.53783,-4.395662 7.19508,-6.804886 11.9357,-6.681763 z m -31.913293,2.594157 c 7.382797,0 13.367659,5.984862 13.367659,13.36766 0,7.382796 -5.984862,13.367657 -13.367659,13.367657 -7.382797,0 -13.368177,-5.984861 -13.368177,-13.367657 0,-7.382798 5.98538,-13.36766 13.368177,-13.36766 z m 59.820123,10.93525 c 4.74062,-0.123124 9.39787,2.285584 11.9357,6.681246 3.6914,6.393691 1.50097,14.569501 -4.89272,18.260901 -6.39368,3.6914 -14.56951,1.50096 -18.2609,-4.89272 -3.69141,-6.39369 -1.50044,-14.569507 4.89324,-18.260906 1.99803,-1.153562 4.16985,-1.732556 6.32468,-1.788521 z m -86.208177,7.092073 c 4.740622,-0.123123 9.397869,2.286102 11.935706,6.681764 3.691398,6.39369 1.500965,14.5695 -4.892725,18.2609 -6.39369,3.6914 -14.569502,1.50045 -18.260901,-4.89324 -3.691399,-6.39369 -1.500966,-14.56899 4.892725,-18.260385 1.998028,-1.153562 4.170367,-1.733073 6.325195,-1.789039 z M 162.58337,114.51008 c 7.38279,0 13.36765,5.98538 13.36765,13.36818 0,7.3828 -5.98486,13.36766 -13.36765,13.36766 -7.38281,0 -13.36766,-5.98486 -13.36766,-13.36766 0,-7.3828 5.98485,-13.36818 13.36766,-13.36818 z m -117.403691,9.69088 c 2.154828,0.056 4.32665,0.63496 6.324678,1.78852 6.39369,3.6914 8.584641,11.86722 4.893242,18.2609 -3.691399,6.39369 -11.867212,8.58413 -18.260901,4.89273 -6.39369,-3.6914 -8.584123,-11.8667 -4.892725,-18.26038 2.537837,-4.39567 7.195084,-6.80489 11.935706,-6.68177 z m 2.237073,31.55208 c 7.382796,0 13.367659,5.98486 13.367659,13.36766 0,7.3828 -5.984863,13.36818 -13.367659,13.36818 -7.382798,0 -13.36766,-5.98538 -13.36766,-13.36818 0,-7.3828 5.984862,-13.36766 13.36766,-13.36766 z m 17.666621,26.03149 c 4.740622,-0.12312 9.397869,2.28558 11.935706,6.68124 3.691398,6.39369 1.500448,14.56951 -4.893241,18.2609 -6.393691,3.6914 -14.568985,1.50096 -18.260384,-4.89272 -3.691399,-6.39369 -1.500965,-14.5695 4.892724,-18.2609 1.998028,-1.15356 4.170367,-1.73256 6.325195,-1.78852 z m 60.537907,10.9306 c 7.3828,0 13.36818,5.98486 13.36818,13.36766 0,7.3828 -5.98538,13.36766 -13.36818,13.36766 -7.3828,0 -13.36766,-5.98486 -13.36766,-13.36766 0,-7.3828 5.98486,-13.36766 13.36766,-13.36766 z m -31.195512,2.59829 c 2.154829,0.056 4.327168,0.63496 6.325192,1.78852 6.39369,3.6914 8.58413,11.86721 4.89273,18.2609 -3.6914,6.39368 -11.866696,8.58413 -18.260386,4.89272 -6.39369,-3.69139 -8.584639,-11.8667 -4.893241,-18.26038 2.537837,-4.39566 7.195084,-6.80488 11.935705,-6.68176 z"
       transform="translate(-26.958052,-70.457473)" />
    <path
       style="fill:#000000;fill-opacity:0;stroke-width:2.00002;stroke-linecap:round;paint-order:markers fill stroke"
       id="path2"
       d="m 111.10507,135.5023 c 0,6.81271 -5.52279,12.3355 -12.335501,12.3355 -6.812708,0 -12.335499,-5.52279 -12.335499,-12.3355 0,-6.8127 5.522791,-12.3355 12.335499,-12.3355 6.812711,0 12.335501,5.5228 12.335501,12.3355 z"/>
    <path
       style="fill:#000000;fill-opacity:0;stroke-width:2.00002;stroke-linecap:round;paint-order:markers fill stroke"
       id="path12"
       d="m 111.10507,135.5023 c 0,6.81271 -5.52279,12.3355 -12.335501,12.3355 -6.812708,0 -12.335499,-5.52279 -12.335499,-12.3355 0,-6.8127 5.522791,-12.3355 12.335499,-12.3355 6.812711,0 12.335501,5.5228 12.335501,12.3355 z"
       transform="rotate(30,78.042003,78.042009)" />
    <path
       style="fill:#000000;fill-opacity:0;stroke-width:2.00002;stroke-linecap:round;paint-order:markers fill stroke"
       id="path13"
       d="m 111.10507,135.5023 c 0,6.81271 -5.52279,12.3355 -12.335501,12.3355 -6.812708,0 -12.335499,-5.52279 -12.335499,-12.3355 0,-6.8127 5.522791,-12.3355 12.335499,-12.3355 6.812711,0 12.335501,5.5228 12.335501,12.3355 z"
       transform="rotate(60,78.042003,78.042009)" />
    <path
       style="fill:#000000;fill-opacity:0;stroke-width:2.00002;stroke-linecap:round;paint-order:markers fill stroke"
       id="path14"
       d="m 111.10507,135.5023 c 0,6.81271 -5.52279,12.3355 -12.335501,12.3355 -6.812708,0 -12.335499,-5.52279 -12.335499,-12.3355 0,-6.8127 5.522791,-12.3355 12.335499,-12.3355 6.812711,0 12.335501,5.5228 12.335501,12.3355 z"
       transform="rotate(90,78.042003,78.042009)" />
    <path
       style="fill:#000000;fill-opacity:0;stroke-width:2.00002;stroke-linecap:round;paint-order:markers fill stroke"
       id="path15"
       d="m 111.10507,135.5023 c 0,6.81271 -5.52279,12.3355 -12.335501,12.3355 -6.812708,0 -12.335499,-5.52279 -12.335499,-12.3355 0,-6.8127 5.522791,-12.3355 12.335499,-12.3355 6.812711,0 12.335501,5.5228 12.335501,12.3355 z"
       transform="rotate(120,78.042003,78.042009)" />
    <path
       style="fill:#000000;fill-opacity:0;stroke-width:2.00002;stroke-linecap:round;paint-order:markers fill stroke"
       id="path16"
       d="m 111.10507,135.5023 c 0,6.81271 -5.52279,12.3355 -12.335501,12.3355 -6.812708,0 -12.335499,-5.52279 -12.335499,-12.3355 0,-6.8127 5.522791,-12.3355 12.335499,-12.3355 6.812711,0 12.335501,5.5228 12.335501,12.3355 z"
       transform="rotate(150,78.042003,78.042009)" />
    <path
       style="fill:#000000;fill-opacity:0;stroke-width:2.00002;stroke-linecap:round;paint-order:markers fill stroke"
       id="path17"
       d="m 111.10507,135.5023 c 0,6.81271 -5.52279,12.3355 -12.335501,12.3355 -6.812708,0 -12.335499,-5.52279 -12.335499,-12.3355 0,-6.8127 5.522791,-12.3355 12.335499,-12.3355 6.812711,0 12.335501,5.5228 12.335501,12.3355 z"
       transform="rotate(180,78.042003,78.042009)" />
    <path
       style="fill:#000000;fill-opacity:0;stroke-width:2.00002;stroke-linecap:round;paint-order:markers fill stroke"
       id="path18"
       d="m 111.10507,135.5023 c 0,6.81271 -5.52279,12.3355 -12.335501,12.3355 -6.812708,0 -12.335499,-5.52279 -12.335499,-12.3355 0,-6.8127 5.522791,-12.3355 12.335499,-12.3355 6.812711,0 12.335501,5.5228 12.335501,12.3355 z"
       transform="rotate(-150,78.042003,78.042009)" />
    <path
       style="fill:#000000;fill-opacity:0;stroke-width:2.00002;stroke-linecap:round;paint-order:markers fill stroke"
       id="path19"
       d="m 111.10507,135.5023 c 0,6.81271 -5.52279,12.3355 -12.335501,12.3355 -6.812708,0 -12.335499,-5.52279 -12.335499,-12.3355 0,-6.8127 5.522791,-12.3355 12.335499,-12.3355 6.812711,0 12.335501,5.5228 12.335501,12.3355 z"
       transform="rotate(-120,78.042003,78.042009)" />
    <path
       style="fill:#000000;fill-opacity:0;stroke-width:2.00002;stroke-linecap:round;paint-order:markers fill stroke"
       id="path20"
       d="m 111.10507,135.5023 c 0,6.81271 -5.52279,12.3355 -12.335501,12.3355 -6.812708,0 -12.335499,-5.52279 -12.335499,-12.3355 0,-6.8127 5.522791,-12.3355 12.335499,-12.3355 6.812711,0 12.335501,5.5228 12.335501,12.3355 z"
       transform="rotate(-90,78.042003,78.042009)" />
  </g>
</svg>
