<?xml version="1.0" encoding="UTF-8" standalone="no"?>
<!-- Created with Inkscape (http://www.inkscape.org/) -->

<svg
   width="156.21941mm"
   height="156.1842mm"
   viewBox="0 0 156.21941 156.1842"
   version="1.1"
   id="svg1"
   xmlns="http://www.w3.org/2000/svg"
   xmlns:svg="http://www.w3.org/2000/svg">
  <defs
     id="defs1" />
  <g
     id="layer3"
     style="display:inline"
     transform="translate(0.0734226,0.05)">
    <path
       id="circle90"
       style="display:inline;fill:#33aaff;fill-opacity:0.6;stroke:#dddddd;stroke-width:1.4;stroke-linecap:round;stroke-dasharray:none;stroke-opacity:1;paint-order:markers fill stroke"
       d="M 77.93602,0.44948525 C 35.18742,0.5141956 0.58521277,35.221095 0.6496467,77.969696 0.71406924,120.7185 35.421053,155.32102 78.169858,155.25659 120.91886,155.19219 155.52146,120.48486 155.45674,77.735855 155.392,34.987061 120.68483,0.38477455 77.93602,0.44948525 Z M 89.142705,4.8926616 c 2.137285,0.052284 4.292207,0.6237964 6.275618,1.7649266 6.346927,3.6516188 8.532187,11.7567608 4.880567,18.1036648 -3.651603,6.346908 -11.757265,8.532191 -18.104178,4.880569 C 75.847808,25.990203 73.663039,17.884549 77.314661,11.537643 79.825143,7.1741436 84.440692,4.7776481 89.142705,4.8926616 Z M 57.49438,7.5134072 C 64.816769,7.5023465 70.761644,13.429287 70.772706,20.75168 70.783771,28.074069 64.856825,34.018943 57.534434,34.030004 50.212042,34.041065 44.266655,28.114124 44.255594,20.791736 44.244534,13.469343 50.171987,7.5244678 57.49438,7.5134072 Z M 116.8415,18.269575 c 4.70165,-0.129218 9.32443,2.252812 11.84807,6.608706 3.67078,6.335845 1.51051,14.448062 -4.82533,18.11884 -6.33584,3.67078 -14.44808,1.510499 -18.11883,-4.825334 -3.67081,-6.335853 -1.51,-14.44807 4.82583,-18.118847 1.97997,-1.147116 4.13315,-1.724629 6.27026,-1.783365 z m -85.492287,7.163208 c 4.70165,-0.129216 9.324412,2.253326 11.848069,6.609219 3.670775,6.335844 1.510509,14.448059 -4.825337,18.11884 -6.335848,3.670778 -14.448066,1.509992 -18.118841,-4.825852 -3.670775,-6.335843 -1.510509,-14.447552 4.82534,-18.118327 1.979952,-1.147118 4.133654,-1.725143 6.270769,-1.78388 z m 46.635572,7.300359 c 24.919035,-0.0378 45.150545,20.132442 45.188305,45.051479 0.0378,24.919239 -20.13275,45.150829 -45.051996,45.188299 C 53.202056,123.01041 32.97078,102.83996 32.933308,77.92093 32.895782,53.002092 53.065948,32.770899 77.984785,32.733142 Z m 57.129735,11.322289 c 7.32236,-0.01105 13.26724,5.916385 13.27829,13.238787 0.0112,7.322392 -5.91587,13.267266 -13.23825,13.278328 -7.3224,0.01105 -13.26727,-5.91588 -13.27832,-13.238272 -0.0112,-7.322402 5.91585,-13.267783 13.23828,-13.278843 z M 18.685801,53.842919 c 2.137281,0.05231 4.292209,0.623289 6.275615,1.764414 6.346908,3.651621 8.532187,11.757282 4.880568,18.104177 -3.651617,6.346914 -11.757273,8.531683 -18.104178,4.880061 C 5.3908976,74.939949 3.2061343,66.834803 6.8577506,60.487908 9.3682382,56.124397 13.983782,53.727909 18.685801,53.842919 Z m 2.266041,31.290604 c 7.32239,-0.01105 13.267267,5.91588 13.278327,13.238269 0.01105,7.322408 -5.915882,13.267778 -13.23827,13.278848 -7.322394,0.011 -13.2672684,-5.91641 -13.2783293,-13.238793 -0.01106,-7.322393 5.9158793,-13.267263 13.2382723,-13.278324 z m 17.561091,25.792067 c 4.70165,-0.12922 9.324414,2.25281 11.848071,6.6087 3.670773,6.33585 1.509993,14.44806 -4.825854,18.11884 -6.335846,3.67077 -14.44755,1.51049 -18.118326,-4.82534 -3.670775,-6.33584 -1.510505,-14.44806 4.82534,-18.11885 1.979951,-1.1471 4.133657,-1.72462 6.270769,-1.78335 z m 60.05902,10.75048 c 7.322417,-0.0112 13.267787,5.91586 13.278857,13.23828 0.011,7.32238 -5.91641,13.26725 -13.238801,13.2783 -7.322384,0.0112 -13.267262,-5.91587 -13.278325,-13.23826 -0.01105,-7.3224 5.915881,-13.26726 13.238269,-13.27832 z m -30.936405,2.62375 c 2.137281,0.0524 4.292728,0.62328 6.276126,1.76441 6.346914,3.65165 8.531672,11.75729 4.88006,18.10419 -3.651622,6.3469 -11.756761,8.53168 -18.103669,4.88007 -6.346906,-3.65162 -8.532182,-11.75678 -4.880565,-18.10368 2.510486,-4.3635 7.12603,-6.75998 11.828048,-6.64499 z" />
    <path
       id="path4"
       style="display:inline;opacity:0.0132006;fill:none;stroke:#999999;stroke-width:0.0999999;stroke-linecap:round;stroke-dasharray:none;paint-order:markers fill stroke"
       d="M 77.724738,0.30540475 C 34.798396,0.30554318 -2.4695055e-4,35.104184 -3.8638255e-4,78.030528 -5.3477805e-4,120.95707 34.798296,155.85047 77.724738,155.75617 120.26607,155.66275 154.69467,120.77373 155.45037,78.030528 156.2092,35.110688 120.65129,0.30526133 77.724738,0.30540475 Z M 88.971255,4.7840434 c 2.146087,0.055743 4.309095,0.6328978 6.299019,1.7817797 6.367756,3.6764229 8.549816,11.8185509 4.873396,18.1862989 -3.676422,6.367753 -11.819071,8.549814 -18.186822,4.87339 C 75.589098,25.94909 73.407555,17.806447 77.083979,11.438698 79.611512,7.0608695 84.249867,4.6614199 88.971255,4.7840434 Z M 57.187437,7.3676756 c 7.352844,0 13.313424,5.9605814 13.313424,13.3134264 0,7.352843 -5.96058,13.313423 -13.313424,13.313423 -7.352845,0 -13.313941,-5.96058 -13.313941,-13.313423 0,-7.352845 5.961096,-13.3134264 13.313941,-13.3134264 z M 116.76487,18.25856 c 4.72138,-0.122624 9.35974,2.276311 11.88727,6.65414 3.67643,6.367751 1.49488,14.510391 -4.87287,18.186814 -6.36774,3.676424 -14.5104,1.49487 -18.18681,-4.872869 -3.67643,-6.367751 -1.49435,-14.510397 4.87339,-18.18682 1.98992,-1.148883 4.15293,-1.725527 6.29902,-1.781265 z m -85.858428,7.063299 c 4.721389,-0.122623 9.35974,2.276828 11.887281,6.654656 3.676422,6.36775 1.494876,14.51039 -4.872874,18.186813 -6.367751,3.676425 -14.510392,1.494363 -18.186815,-4.873387 -3.676422,-6.36775 -1.494876,-14.509882 4.872875,-18.186301 1.989922,-1.148882 4.153447,-1.726041 6.299533,-1.781781 z M 135.07469,44.179285 c 7.35283,0 13.31342,5.961097 13.31342,13.313944 0,7.352847 -5.96059,13.313427 -13.31342,13.313427 -7.35286,0 -13.31343,-5.96058 -13.31343,-13.313427 0,-7.352847 5.96057,-13.313944 13.31343,-13.313944 z M 18.147314,53.830849 c 2.146085,0.05577 4.309097,0.632384 6.299018,1.781264 6.36775,3.676423 8.549812,11.819073 4.873389,18.186813 -3.676422,6.36775 -11.819065,8.549303 -18.186814,4.87288 C 4.7651566,74.995382 2.5836104,66.85325 6.260032,60.48551 8.7875727,56.107674 13.425925,53.708228 18.147314,53.830849 Z m 2.227996,31.42407 c 7.352844,0 13.313426,5.960578 13.313426,13.313425 0,7.352846 -5.960582,13.313946 -13.313426,13.313946 -7.352845,0 -13.3134255,-5.9611 -13.3134255,-13.313946 0,-7.352847 5.9605805,-13.313425 13.3134255,-13.313425 z m 17.594946,25.925871 c 4.72139,-0.12261 9.359741,2.27631 11.887282,6.65413 3.676422,6.36775 1.49436,14.51041 -4.873388,18.18682 -6.367752,3.67642 -14.509877,1.49487 -18.1863,-4.87287 -3.676423,-6.36775 -1.494876,-14.51039 4.872874,-18.18681 1.989921,-1.14888 4.153447,-1.72553 6.299532,-1.78127 z m 60.292299,10.88626 c 7.352855,0 13.313945,5.96057 13.313945,13.31343 0,7.35284 -5.96109,13.31341 -13.313945,13.31341 -7.352847,0 -13.313426,-5.96057 -13.313426,-13.31341 0,-7.35286 5.960579,-13.31343 13.313426,-13.31343 z m -31.068949,2.58774 c 2.146087,0.0558 4.309613,0.63238 6.29953,1.78127 6.36775,3.67643 8.549304,11.81906 4.87288,18.18681 -3.676424,6.36774 -11.818552,8.5493 -18.186301,4.87288 -6.367751,-3.67642 -8.549811,-11.81857 -4.87339,-18.18631 2.527541,-4.37782 7.165893,-6.77726 11.887281,-6.65465 z" />
  </g>
</svg>
